<svg xmlns="http://www.w3.org/2000/svg" xmlns:xlink="http://www.w3.org/1999/xlink" width="13.03" height="11.94" viewBox="0 0 13.03 11.94">
  <metadata><?xpacket begin="﻿" id="W5M0MpCehiHzreSzNTczkc9d"?>
<x:xmpmeta xmlns:x="adobe:ns:meta/" x:xmptk="Adobe XMP Core 5.6-c142 79.160924, 2017/07/13-01:06:39        ">
   <rdf:RDF xmlns:rdf="http://www.w3.org/1999/02/22-rdf-syntax-ns#">
      <rdf:Description rdf:about=""/>
   </rdf:RDF>
</x:xmpmeta>
                                                                                                    
                                                                                                    
                                                                                                    
                                                                                                    
                                                                                                    
                                                                                                    
                                                                                                    
                                                                                                    
                                                                                                    
                                                                                                    
                                                                                                    
                                                                                                    
                                                                                                    
                                                                                                    
                                                                                                    
                                                                                                    
                                                                                                    
                                                                                                    
                                                                                                    
                                                                                                    
                           
<?xpacket end="w"?></metadata>
<defs>
    <style>
      .cls-1 {
        fill: #666;
        fill-rule: evenodd;
        filter: url(#filter);
      }
    </style>
    <filter id="filter" x="1345" y="4540.81" width="13.03" height="11.94" filterUnits="userSpaceOnUse">
      <feFlood result="flood" flood-color="#41cdb8"/>
      <feComposite result="composite" operator="in" in2="SourceGraphic"/>
      <feBlend result="blend" in2="SourceGraphic"/>
    </filter>
  </defs>
  <path id="иконка_телефон" data-name="иконка телефон" class="cls-1" d="M1357.99,4550.68a3.341,3.341,0,0,1-3.27,2.07,3.4,3.4,0,0,1-.45-0.03,11.112,11.112,0,0,1-5.83-3.13,9.761,9.761,0,0,1-3.41-5.34,2.833,2.833,0,0,1,2.23-3.41,1.241,1.241,0,0,1,.27-0.03c0.97,0,2.12,1.25,2.53,2.15a1.084,1.084,0,0,1-.06,1.31,2.1,2.1,0,0,0-1,1.46,3.313,3.313,0,0,0,1.19,1.6c0.09,0.09.22,0.21,0.36,0.34s0.25,0.22.36,0.32a3.341,3.341,0,0,0,1.81,1.09,2.479,2.479,0,0,0,1.53-.91,0.918,0.918,0,0,1,.64-0.22,4.312,4.312,0,0,1,2.71,1.51A1.326,1.326,0,0,1,1357.99,4550.68Z" transform="translate(-1345 -4540.81)"/>
</svg>
